HIERARCHY
ROOT joint_Root
{
	OFFSET 0.0 0.0 0.0
	CHANNELS 6 Xposition Yposition Zposition Zrotation Xrotation Yrotation 
	JOINT Hips
	{
		OFFSET -17.1583 93.1646 452.98
		CHANNELS 6 Xposition Yposition Zposition Zrotation Xrotation Yrotation 
		JOINT Spine
		{
			OFFSET 15.7357 0.0 0.0
			CHANNELS 6 Xposition Yposition Zposition Zrotation Xrotation Yrotation 
			JOINT Chest
			{
				OFFSET 8.98455 -0.406207 0.0
				CHANNELS 6 Xposition Yposition Zposition Zrotation Xrotation Yrotation 
				JOINT Neck
				{
					OFFSET 16.3773 0.0 0.0
					CHANNELS 6 Xposition Yposition Zposition Zrotation Xrotation Yrotation 
					JOINT Head
					{
						OFFSET 6.45672 0.0 0.0
						CHANNELS 6 Xposition Yposition Zposition Zrotation Xrotation Yrotation 
						End Site
						{
							OFFSET 0.0 0.0 0.0
						}
					}
				}
				JOINT Shoulder_L
				{
					OFFSET 12.9942 -0.242716 4.98039
					CHANNELS 6 Xposition Yposition Zposition Zrotation Xrotation Yrotation 
					JOINT UpperArm_L
					{
						OFFSET 5.34809 0.0 0.0
						CHANNELS 6 Xposition Yposition Zposition Zrotation Xrotation Yrotation 
						JOINT LowerArm_L
						{
							OFFSET 24.3286 1.87007e-05 0.0
							CHANNELS 6 Xposition Yposition Zposition Zrotation Xrotation Yrotation 
							JOINT Hand_L
							{
								OFFSET 22.2916 0.0 0.0
								CHANNELS 6 Xposition Yposition Zposition Zrotation Xrotation Yrotation 
								End Site
								{
									OFFSET 0.0 0.0 0.0
								}
							}
						}
					}
				}
				JOINT Shoulder_R
				{
					OFFSET 12.9945 -0.242716 -4.98039
					CHANNELS 6 Xposition Yposition Zposition Zrotation Xrotation Yrotation 
					JOINT UpperArm_R
					{
						OFFSET -5.34813 0.0 0.0
						CHANNELS 6 Xposition Yposition Zposition Zrotation Xrotation Yrotation 
						JOINT LowerArm_R
						{
							OFFSET -24.3289 0.000322201 0.0
							CHANNELS 6 Xposition Yposition Zposition Zrotation Xrotation Yrotation 
							JOINT Hand_R
							{
								OFFSET -22.2915 -0.000108084 0.0
								CHANNELS 6 Xposition Yposition Zposition Zrotation Xrotation Yrotation 
								End Site
								{
									OFFSET 0.0 0.0 0.0
								}
							}
						}
					}
				}
			}
		}
		JOINT UpperLeg_L
		{
			OFFSET -2.19248 -6.46944 0.0
			CHANNELS 6 Xposition Yposition Zposition Zrotation Xrotation Yrotation 
			JOINT LowerLeg_L
			{
				OFFSET 39.0811 0.0 -1.23785e-05
				CHANNELS 6 Xposition Yposition Zposition Zrotation Xrotation Yrotation 
				JOINT Foot_L
				{
					OFFSET 40.9854 0.0 -1.26872e-05
					CHANNELS 6 Xposition Yposition Zposition Zrotation Xrotation Yrotation 
					JOINT Toes_L
					{
						OFFSET 11.7543 0.0 0.0
						CHANNELS 6 Xposition Yposition Zposition Zrotation Xrotation Yrotation 
						End Site
						{
							OFFSET 0.0 0.0 0.0
						}
					}
				}
			}
		}
		JOINT UpperLeg_R
		{
			OFFSET -2.19251 6.46944 0.0
			CHANNELS 6 Xposition Yposition Zposition Zrotation Xrotation Yrotation 
			JOINT LowerLeg_R
			{
				OFFSET -39.0811 -0.00228153 -0.0401928
				CHANNELS 6 Xposition Yposition Zposition Zrotation Xrotation Yrotation 
				JOINT Foot_R
				{
					OFFSET -40.9854 0.0 0.0
					CHANNELS 6 Xposition Yposition Zposition Zrotation Xrotation Yrotation 
					JOINT Toes_R
					{
						OFFSET -11.7543 0.0 0.0
						CHANNELS 6 Xposition Yposition Zposition Zrotation Xrotation Yrotation 
						End Site
						{
							OFFSET 0.0 0.0 0.0
						}
					}
				}
			}
		}
	}
}
MOTION
Frames:	6
Frame Time:	0.0333333
0.000000 0.000000 0.000000 0.000000 0.000000 -0.000000 -2.729560 93.606200 -6.671920 87.742100 2.405310 1.979800 15.735700 0.000005 -0.000001 82.559000 85.294900 -80.840800 8.984550 -0.406207 -0.000000 1.587390 -1.310620 3.451560 16.377300 -0.000001 -0.000001 0.546201 -0.176190 -0.280038 6.456720 -0.000001 -0.000000 -11.048800 -1.668050 0.359064 12.994200 -0.242716 4.980390 -92.585900 7.907570 -71.826100 5.348090 -0.000007 -0.000001 -73.491900 24.981900 -1.602840 24.328600 0.000019 0.000005 9.838670 25.887200 -21.663900 22.291600 -0.000001 0.000005 -9.836250 5.171560 3.417770 12.994500 -0.242716 -4.980390 88.180900 5.271260 -70.929400 -5.348130 -0.000001 -0.000004 -66.645400 34.502500 -10.025500 -24.328900 0.000322 -0.000009 0.532288 1.767000 -16.798100 -22.291500 -0.000108 -0.000004 -9.519770 5.222250 2.156330 -2.192480 -6.469440 -0.000000 -172.559000 -11.124400 -4.791230 39.081100 -0.000007 -0.000012 -0.006110 0.022547 15.160500 40.985400 -0.000006 -0.000013 -1.965660 15.831300 -64.769300 11.754300 -0.000000 0.000003 -0.000752 0.179442 -9.297990 -2.192510 6.469440 -0.000001 178.348000 9.227200 177.640000 -39.081100 -0.002282 -0.040193 0.017648 -0.066131 12.212500 -40.985400 0.000008 0.000006 -6.839780 8.522590 -63.675700 -11.754300 -0.000006 -0.000006 -0.009803 0.269824 -5.611550
0.000000 0.000000 0.000000 0.000000 0.000000 -0.000000 -2.645330 93.635900 -6.482170 87.756000 2.360900 1.540620 15.735700 0.000005 -0.000001 82.304200 85.454600 -80.507500 8.984550 -0.406207 -0.000000 1.266430 -1.318670 3.605110 16.377300 -0.000001 -0.000001 -0.197189 -0.102580 -0.215128 6.456720 -0.000001 -0.000000 -11.731200 -1.429250 0.230097 12.994200 -0.242716 4.980390 -92.669300 7.994090 -71.467300 5.348090 -0.000007 -0.000001 -70.779300 25.733200 -4.760590 24.328600 0.000019 0.000005 11.932400 32.879200 -21.270000 22.291600 -0.000001 0.000005 -17.165900 5.314050 -0.342490 12.994500 -0.242716 -4.980390 88.202800 5.093540 -70.535600 -5.348130 -0.000001 -0.000004 -64.379700 32.169500 -11.992600 -24.328900 0.000322 -0.000009 0.676018 2.059000 -18.206700 -22.291500 -0.000108 -0.000004 -15.841600 5.197970 2.772000 -2.192480 -6.469440 -0.000000 -172.678000 -11.361600 -4.940230 39.081100 -0.000007 -0.000012 -0.004933 0.018539 14.897400 40.985400 -0.000006 -0.000013 -1.921930 15.941900 -64.907700 11.754300 -0.000000 0.000003 -0.000585 0.176957 -9.398980 -2.192510 6.469440 -0.000001 178.288000 9.268840 177.548000 -39.081100 -0.002282 -0.040193 0.016499 -0.063082 11.786400 -40.985400 0.000008 0.000006 -7.296540 8.634070 -63.568700 -11.754300 -0.000006 -0.000006 -0.010267 0.273290 -5.469790
0.000000 0.000000 0.000000 0.000000 0.000000 -0.000000 -2.571330 93.666500 -6.256060 87.766300 2.375000 0.911928 15.735700 0.000005 -0.000001 82.521900 85.821100 -80.708300 8.984550 -0.406207 -0.000000 0.542422 -1.201660 3.630180 16.377300 -0.000001 -0.000001 -0.911740 -0.153996 -0.084115 6.456720 -0.000001 -0.000000 -12.284100 -1.300000 0.379445 12.994200 -0.242716 4.980390 -92.581300 7.606870 -71.192800 5.348090 -0.000007 -0.000001 -66.999200 22.886800 -9.527270 24.328600 0.000019 0.000005 11.442000 38.194300 -18.125300 22.291600 -0.000001 0.000005 -21.244200 5.404940 -3.099100 12.994500 -0.242716 -4.980390 88.412500 4.385380 -70.077400 -5.348130 -0.000001 -0.000004 -61.774400 28.326700 -14.351000 -24.328900 0.000322 -0.000009 0.339693 0.940339 -19.922300 -22.291500 -0.000108 -0.000004 -21.116300 5.185380 3.082660 -2.192480 -6.469440 -0.000000 -172.805000 -11.784000 -5.246020 39.081100 -0.000007 -0.000012 -0.005072 0.019470 14.599000 40.985400 -0.000006 -0.000013 -1.868700 16.313900 -65.072800 11.754300 -0.000000 0.000003 -0.000448 0.174846 -9.484720 -2.192510 6.469440 -0.000001 178.258000 9.609360 177.339000 -39.081100 -0.002282 -0.040193 0.015602 -0.061702 11.242800 -40.985400 0.000008 0.000006 -7.617250 9.001710 -63.337800 -11.754300 -0.000006 -0.000006 -0.010046 0.271651 -5.536850
0.000000 0.000000 0.000000 0.000000 0.000000 -0.000000 -2.482080 93.731000 -5.997360 87.801800 2.359190 0.038014 15.735700 0.000005 -0.000001 81.972600 86.417800 -80.178600 8.984550 -0.406207 -0.000000 -0.651498 -1.132000 3.579940 16.377300 -0.000001 -0.000001 -1.678350 -0.122806 -0.037119 6.456720 -0.000001 -0.000000 -12.423200 -1.151320 0.475565 12.994200 -0.242716 4.980390 -92.322300 6.706050 -70.849100 5.348090 -0.000007 -0.000001 -63.219800 14.671900 -14.899600 24.328600 0.000019 0.000005 8.666360 41.052900 -13.066100 22.291600 -0.000001 0.000005 -19.315900 5.368830 -1.954810 12.994500 -0.242716 -4.980390 88.768000 3.341750 -69.749400 -5.348130 -0.000001 -0.000004 -58.301400 23.064600 -17.980600 -24.328900 0.000322 -0.000009 -0.274955 -0.744875 -20.191000 -22.291500 -0.000108 -0.000004 -23.023800 5.182670 3.150210 -2.192480 -6.469440 -0.000000 -173.012000 -12.340800 -5.547720 39.081100 -0.000007 -0.000012 -0.006794 0.027478 13.886800 40.985400 -0.000006 -0.000013 -1.861710 16.754200 -65.168300 11.754300 -0.000000 0.000003 -0.000607 0.177278 -9.385950 -2.192510 6.469440 -0.000001 178.207000 10.563400 177.176000 -39.081100 -0.002282 -0.040193 0.013563 -0.056957 10.176800 -40.985400 0.000008 0.000006 -8.088250 9.906850 -62.772300 -11.754300 -0.000006 -0.000006 -0.010407 0.274324 -5.427500
0.000000 0.000000 0.000000 0.000000 0.000000 -0.000000 -2.380300 93.785600 -5.642750 87.814800 2.191720 -0.863832 15.735700 0.000005 -0.000001 81.412900 87.108300 -79.632400 8.984550 -0.406207 -0.000000 -2.029370 -1.015420 3.542480 16.377300 -0.000001 -0.000001 -2.679700 -0.038089 -0.179906 6.456720 -0.000001 -0.000000 -12.275200 -0.941032 0.280290 12.994200 -0.242716 4.980390 -92.028900 5.786650 -70.640300 5.348090 -0.000007 -0.000001 -58.573200 5.656370 -19.883800 24.328600 0.000019 0.000005 7.688750 41.700800 -11.471800 22.291600 -0.000001 0.000005 -16.700600 5.319630 -0.486364 12.994500 -0.242716 -4.980390 89.170800 2.245950 -69.730700 -5.348130 -0.000001 -0.000004 -54.346400 15.663600 -22.666100 -24.328900 0.000322 -0.000009 -0.727317 -2.180030 -18.432100 -22.291500 -0.000108 -0.000004 -20.966900 5.183230 3.136870 -2.192480 -6.469440 -0.000000 -173.230000 -12.959400 -5.831930 39.081100 -0.000007 -0.000012 -0.008563 0.036455 13.217500 40.985400 -0.000006 -0.000013 -1.840200 17.000300 -65.214700 11.754300 -0.000000 0.000003 -0.000561 0.176593 -9.413770 -2.192510 6.469440 -0.000001 178.169000 11.727600 177.099000 -39.081100 -0.002282 -0.040193 0.011161 -0.049640 8.952910 -40.985400 0.000008 0.000006 -8.532570 11.167000 -62.058200 -11.754300 -0.000006 -0.000006 -0.010442 0.274578 -5.417120
0.000000 0.000000 0.000000 0.000000 0.000000 -0.000000 -2.269370 93.847100 -5.184460 87.762100 1.809590 -1.872580 15.735700 0.000005 -0.000001 81.572600 87.837900 -79.812300 8.984550 -0.406207 -0.000000 -3.473900 -0.805973 3.497170 16.377300 -0.000001 -0.000001 -4.133830 0.235122 -0.392639 6.456720 -0.000001 -0.000000 -12.051900 -0.592363 0.081519 12.994200 -0.242716 4.980390 -91.740900 4.843420 -70.202200 5.348090 -0.000007 -0.000001 -53.110700 -2.731970 -25.104700 24.328600 0.000019 0.000005 7.670460 40.156800 -11.796400 22.291600 -0.000001 0.000005 -14.667100 5.327220 -0.703967 12.994500 -0.242716 -4.980390 89.475600 1.448890 -70.100300 -5.348130 -0.000001 -0.000004 -49.842300 6.682980 -28.077600 -24.328900 0.000322 -0.000009 -0.635571 -2.322010 -15.288600 -22.291500 -0.000108 -0.000004 -16.493500 5.193820 2.875320 -2.192480 -6.469440 -0.000000 -173.418000 -13.603300 -6.054560 39.081100 -0.000007 -0.000012 -0.011125 0.050650 12.387700 40.985400 -0.000006 -0.000013 -1.850320 17.014000 -65.129700 11.754300 -0.000000 0.000003 -0.001093 0.184354 -9.098400 -2.192510 6.469440 -0.000001 178.212000 13.032200 177.302000 -39.081100 -0.002282 -0.040193 0.008867 -0.044958 7.003590 -40.985400 0.000008 0.000006 -9.264440 12.675700 -60.736600 -11.754300 -0.000006 -0.000006 -0.011511 0.282267 -5.102400
